<svg width="1440" height="1142" viewBox="0 0 1440 1142" fill="none" xmlns="http://www.w3.org/2000/svg">
<path d="M-92.6543 726.421C-64.1466 621.313 278.349 781.564 342.843 719.725C411.248 654.137 299.708 418.064 424.699 412.228C581.474 404.909 641.91 801.57 758.745 789.545C860.509 779.072 707.709 354.62 842.147 344.157C978.513 333.544 1008.94 698.46 1153.65 726.132C1266.26 747.664 1303.66 504.125 1406.11 449.539C1477.04 411.742 1516.95 518.711 1516.95 518.711" stroke="#8EFBFE" stroke-width="90"/>
<path d="M-251.299 671.198C-197.609 485.217 180.104 706.474 275.514 670.318C400.779 622.848 268.735 395.612 364.418 359.052C527.655 296.681 696.653 721.356 742.675 752.407C799.684 790.871 618.268 260.229 855.977 291.659C994.416 309.964 1083.08 664.944 1159.83 663.226C1235.9 661.523 1290.79 391.563 1407.63 377.857C1502.42 366.738 1557.07 490.453 1557.07 490.453" stroke="#FEA5D9" stroke-width="100"/>
<path d="M-268.998 604.868C-215.307 418.887 162.406 640.144 257.816 603.988C383.081 556.518 174.833 338.862 346.719 292.723C518.911 246.501 678.955 655.027 724.976 686.077C781.986 724.542 600.57 193.9 838.279 225.33C976.718 243.634 1065.38 598.615 1142.14 596.896C1218.2 595.193 1273.09 325.234 1389.93 311.527C1484.72 300.408 1539.37 424.123 1539.37 424.123" stroke="#945080" stroke-width="80"/>
</svg>
