<svg width="1155" height="1519" viewBox="0 0 1155 1519" fill="none" xmlns="http://www.w3.org/2000/svg">
<path d="M518.221 1404.03C469.988 1351.16 619.457 1231.39 615.755 1168.11C613.657 1132.26 465.497 1028.04 469.183 1006.84C482.636 929.474 849.69 1037.57 865.945 965.139C880.103 902.053 363.786 788.46 392.445 698.639C414.924 628.184 715.121 750.539 757.002 675.486C789.591 617.084 672.34 511.34 664.093 432.661C658.382 378.182 903.446 271.139 903.446 271.139" stroke="#8EFBFE" stroke-width="90"/>
<path d="M459.595 1477.73C374.873 1382.29 560.321 1237.74 560.14 1169.52C559.903 1079.95 334.779 1085.66 334.445 1017.14C333.874 900.247 746.759 963.843 771.445 947.639C802.025 927.567 261.817 784.75 323.445 656.639C359.336 582.029 712.212 695.661 726.049 650.206C739.762 605.16 612.367 480.093 627.764 407.08C640.256 347.847 892.946 254.14 892.946 254.14" stroke="#FEA5D9" stroke-width="100"/>
<path d="M422.315 1465.23C337.593 1369.79 523.041 1225.23 522.861 1157.01C522.624 1067.45 276.565 1139.5 285.945 1023.14C295.342 906.576 682.759 950.343 707.445 934.139C738.025 914.067 186.317 760.75 247.945 632.639C283.836 558.029 674.933 683.158 688.77 637.702C702.483 592.656 575.087 467.589 590.485 394.576C602.976 335.344 885.945 220.139 885.945 220.139" stroke="#945080" stroke-width="80"/>
</svg>
