<svg width="84" height="84" viewBox="0 0 84 84" fill="none" xmlns="http://www.w3.org/2000/svg">
<path d="M64 82H20C10.058 82 2 73.942 2 64V20C2 10.058 10.058 2 20 2H64C73.942 2 82 10.058 82 20V64C82 73.942 73.942 82 64 82Z" stroke="black" stroke-width="4" stroke-miterlimit="10"/>
<path d="M64 82H20C10.058 82 2 73.942 2 64V20C2 10.058 10.058 2 20 2H64C73.942 2 82 10.058 82 20V64C82 73.942 73.942 82 64 82ZM61.112 66.022C62.718 66.022 68.24 63.136 67.932 56.008C67.878 54.752 67.172 53.6 66.086 52.904C64.85 52.112 62.932 50.882 60.43 49.282C58.148 47.824 55.2 47.72 52.82 49.024L48.654 51.952C47.526 52.744 46.08 52.902 44.808 52.37C42.828 51.542 39.786 49.938 36.934 47.086C34.082 44.234 32.478 41.192 31.65 39.212C31.118 37.94 31.276 36.494 32.068 35.366L34.996 31.2C36.3 28.82 36.198 25.872 34.738 23.59C33.138 21.088 31.908 19.17 31.116 17.934C30.42 16.848 29.268 16.142 28.012 16.088C20.884 15.78 17.998 21.302 17.998 22.908C17.998 24.02 16.476 37.386 31.554 52.464C46.632 67.542 60 66.022 61.112 66.022Z" fill="black"/>
</svg>
